<?xml version="1.0" standalone="no"?>
<!DOCTYPE svg PUBLIC "-//W3C//DTD SVG 20010904//EN"
 "http://www.w3.org/TR/2001/REC-SVG-20010904/DTD/svg10.dtd">
<svg version="1.0" xmlns="http://www.w3.org/2000/svg"
 width="558.000000pt" height="423.000000pt" viewBox="0 0 558.000000 423.000000"
 preserveAspectRatio="xMidYMid meet">
<metadata>
Created by potrace 1.10, written by Peter Selinger 2001-2011
</metadata>
<g transform="translate(0.000000,423.000000) scale(0.100000,-0.100000)"
fill="#000000" stroke="none">
<path d="M262 4210 c-7 -11 -21 -20 -31 -20 -10 0 -24 -7 -31 -15 -7 -8 -21
-15 -30 -15 -22 0 -108 -94 -134 -147 -10 -21 -22 -46 -27 -55 -5 -10 -9 -795
-9 -1838 0 -1418 3 -1829 12 -1860 28 -88 174 -228 258 -246 56 -12 4932 -16
4944 -4 5 5 20 10 32 10 37 0 126 50 181 103 29 28 53 54 53 58 0 4 14 31 30
59 17 28 30 62 30 75 0 14 9 34 20 45 20 20 20 33 20 1749 0 1498 -2 1730 -14
1734 -8 3 -18 23 -21 44 -15 89 -107 220 -191 270 -30 18 -62 33 -70 33 -7 0
-23 9 -34 20 -20 20 -33 20 -2498 20 -2466 0 -2477 0 -2490 -20z m2123 -730
l0 -605 -143 -3 -142 -3 -26 28 c-43 48 -67 75 -168 190 -54 61 -108 114 -120
117 -11 3 -393 6 -847 6 -745 0 -827 2 -833 16 -9 24 -6 532 4 589 15 90 34
128 90 185 92 94 2 88 1165 86 l1020 -1 0 -605z m580 588 c3 -13 4 -286 3
-608 l-3 -585 -212 -3 -213 -2 0 610 0 610 210 0 c209 0 210 0 215 -22z m2255
9 c109 -40 179 -127 206 -257 15 -71 20 -575 6 -597 -6 -10 -202 -13 -870 -15
l-862 -3 -27 -31 c-16 -17 -68 -78 -118 -135 -49 -57 -103 -119 -119 -136
l-29 -33 -142 0 c-139 0 -143 1 -149 23 -8 29 -8 1161 0 1181 6 14 106 16
1038 16 811 0 1038 -3 1066 -13z m-3450 -1056 c14 -15 50 -56 80 -91 30 -35
76 -88 103 -117 l47 -54 -2 -287 -3 -287 -925 -3 c-509 -1 -935 0 -947 3 l-23
5 0 423 c0 232 4 428 8 434 6 10 182 13 803 15 438 2 803 -1 814 -6 11 -5 31
-21 45 -35z m3654 33 c14 -5 16 -53 16 -435 l0 -429 -22 -5 c-13 -3 -446 -4
-963 -3 l-940 3 -3 290 -2 290 91 105 c50 58 109 124 130 148 l38 42 820 0
c450 0 826 -3 835 -6z m-2070 -340 c15 -6 16 -64 16 -600 -1 -517 -3 -596 -16
-609 -13 -13 -91 -15 -603 -15 -443 0 -590 3 -599 12 -9 9 -12 158 -12 608 0
328 3 600 7 603 8 9 1186 9 1207 1z m-1356 -974 l2 -285 -36 -40 c-41 -46
-132 -148 -164 -185 -12 -14 -30 -35 -41 -48 l-18 -23 -811 0 c-447 1 -816 3
-821 7 -10 6 -13 847 -2 857 3 4 430 6 947 5 l941 -3 3 -285z m3440 -143 l2
-427 -22 -9 c-13 -5 -389 -8 -836 -7 l-814 1 -20 25 c-11 14 -36 43 -56 65
-21 22 -70 77 -109 124 l-73 85 0 288 0 288 963 -2 962 -3 3 -428z m-3060
-262 c16 -6 18 -1165 2 -1196 -10 -19 -32 -19 -1002 -19 -1156 0 -1073 -7
-1176 97 -34 35 -62 70 -62 78 0 9 -8 28 -17 42 -16 24 -18 62 -21 335 -3 232
-1 312 8 323 11 13 126 15 850 15 l838 0 84 93 c46 50 111 123 143 161 33 37
68 71 79 75 19 8 251 4 274 -4z m578 1 c12 -5 14 -100 14 -595 0 -526 -2 -591
-16 -605 -14 -14 -44 -16 -212 -14 l-197 3 -3 604 c-1 357 2 607 7 610 11 7
388 4 407 -3z m391 5 c37 -1 67 -6 75 -14 7 -8 40 -44 73 -82 87 -100 156
-176 187 -207 l28 -28 853 0 c650 0 856 -3 865 -12 19 -19 16 -527 -3 -613
-23 -96 -64 -161 -132 -208 -85 -59 -47 -57 -1150 -57 -993 0 -1012 0 -1023
19 -7 14 -9 214 -8 608 l3 587 25 6 c13 3 52 5 85 4 33 -1 88 -2 122 -3z"/>
</g>
</svg>
